<?xml version="1.0" encoding="utf-8"?>
<!-- Generator: Adobe Illustrator 23.0.6, SVG Export Plug-In . SVG Version: 6.00 Build 0)  -->
<svg version="1.1" id="Слой_1" xmlns="http://www.w3.org/2000/svg" xmlns:xlink="http://www.w3.org/1999/xlink" x="0px" y="0px"
	 viewBox="0 0 401 107" style="enable-background:new 0 0 401 107;" xml:space="preserve">
<style type="text/css">
	.st0{fill-rule:evenodd;clip-rule:evenodd;fill:#FFEC00;}
	.st1{fill-rule:evenodd;clip-rule:evenodd;fill:#E30016;}
	.st2{fill-rule:evenodd;clip-rule:evenodd;fill:#1B1918;}
	.st3{fill-rule:evenodd;clip-rule:evenodd;fill:#009EE0;}
</style>
<path class="st0" d="M83.5,72.1h33.3v33.3H83.5V72.1z"/>
<path class="st1" d="M41.8,72.1H75v33.3H41.8V72.1z"/>
<path class="st2" d="M0,72.1h33.3v33.3H0V72.1z"/>
<path class="st3" d="M125.3,71.8h33.3v33.3h-33.3C125.3,105.1,125.3,71.8,125.3,71.8z"/>
<path class="st2" d="M51.1,32.7c0,5.9-1.2,11.1-3.5,15.8c-2.4,4.7-5.5,8.4-9.5,11c-3.2,2-6.5,3.4-9.9,4.1c-3.3,0.7-7.6,1-12.8,1H0.6
	V0.6h14.6c6,0,10.7,0.5,14.2,1.4c3.4,0.9,6.3,2.1,8.7,3.7c4.1,2.7,7.3,6.4,9.6,10.9C50,21.1,51.1,26.5,51.1,32.7L51.1,32.7z
	 M42.2,32.6c0-4.9-0.8-9.1-2.4-12.6c-1.6-3.5-4-6.2-7.2-8.1c-2.2-1.4-4.7-2.4-7.2-3C22.7,8.3,19.5,8,15.7,8H9.2v49.3h6.5
	c3.8,0,7.1-0.3,9.9-0.9c2.8-0.6,5.4-1.7,7.8-3.4c2.9-2,5.1-4.7,6.6-8C41.4,41.8,42.2,37.6,42.2,32.6z M107.2,64.7H96.1L72.7,34.9
	L69,39.1v25.6h-8.6V0.6H69v29.6L95.4,0.6h10.2L79.1,29.3C79.1,29.3,107.2,64.7,107.2,64.7z M134.7,66.1c-3.8,0-7.1-0.5-9.9-1.5
	c-2.8-1-5.2-2.5-7.2-4.4c-2.2-2.3-3.8-4.9-4.7-8c-0.9-3.1-1.4-7-1.4-11.5v-40h8.6v39.9c0,2.9,0.2,5.4,0.6,7.5c0.4,2,1.1,3.8,2.2,5.4
	c1.1,1.7,2.7,3,4.7,3.9c2,0.9,4.4,1.3,7.2,1.3c2.7,0,5-0.4,7.1-1.3c2.1-0.9,3.7-2.2,4.8-3.9c1.1-1.6,1.8-3.4,2.2-5.4
	c0.4-2,0.6-4.4,0.6-7.3V0.6h8.6v40c0,4.5-0.5,8.3-1.4,11.5c-0.9,3.2-2.5,5.9-4.8,8.1c-2,2-4.5,3.5-7.1,4.4
	C141.9,65.6,138.6,66.1,134.7,66.1L134.7,66.1z M176.5,0.8v23.9h6.1c6.9,0,12.8-1.8,12.8-12c0-11.9-9.1-11.9-11.2-11.9H176.5z
	 M178.1,2.2h6.3c3.1,0,9.4,1.2,9.4,10.5c0,9.8-6.1,10.5-10.6,10.5h-5.1V2.2z M202,11.5V2.2h14.2V0.8h-15.8v23.9h16.3v-1.4H202V13
	h13.1v-1.4L202,11.5L202,11.5z M220.2,0.8v14.5c0,4.3,0.6,9.8,8.8,9.8c8.1,0,8.8-5.6,8.8-9.8V0.8h-1.6v14.5c0,4.3-0.9,8.4-7.2,8.4
	c-6.3,0-7.2-4.2-7.2-8.4V0.8H220.2L220.2,0.8z M248.9,2.2v22.5h1.6V2.2h8.1V0.8h-17.9v1.4H248.9z M259.9,17.2c0,3.5,1.9,8,9.3,8
	c7.5,0,8.7-4.2,8.7-6.9c0-5.7-6.1-6.4-9-6.9c-4.1-0.8-6.9-1.4-6.9-4.8c0-3,2.5-5.1,6.8-5.1c5.6,0,6.6,3.8,6.7,5.4h1.7
	C277,3.9,275.2,0,269,0c-6.9,0-8.6,3.9-8.6,6.7c0,4.5,4.1,5.4,7.1,6c1,0.2,2,0.4,3,0.6c2.5,0.5,5.7,1.5,5.7,5c0,1.5-0.6,5.5-7,5.5
	c-5.9,0-7.7-3.6-7.6-6.6L259.9,17.2L259.9,17.2z M300.8,17.1c-0.3,3-2.5,6.9-8.1,6.9c-5.7,0-9.1-4.5-9.1-10.9
	c0-7.1,3.2-11.6,9.1-11.6c5.2,0,7.5,3,7.7,6.2h1.7c-0.2-3.1-2.2-7.6-9.4-7.6c-7.3,0-10.8,5.3-10.8,13.1c0,2.3,0.7,12.3,10.7,12.3
	c7.2,0,9.5-5.1,9.8-8.3L300.8,17.1L300.8,17.1z M309,12.7H323v12h1.6V0.8H323v10.5H309V0.8h-1.6v23.9h1.6V12.7z M178,54.8V41.5h-1.6
	v23.9h1.6v-8.5l4.6-4.5l9.8,13.1h2.1l-10.7-14.2l10-9.7h-2.2C191.6,41.5,178,54.8,178,54.8z M199.4,57.6h10.8l2.9,7.8h1.8l-9.1-23.9
	h-2l-9.1,23.9h1.8L199.4,57.6z M199.9,56.2l4.9-13.4l4.9,13.4H199.9z M216.5,57.9c0,3.5,1.9,8,9.3,8c7.5,0,8.7-4.2,8.7-6.9
	c0-5.7-6.1-6.4-9-6.9c-4.1-0.8-6.9-1.4-6.9-4.8c0-3,2.5-5.1,6.8-5.1c5.6,0,6.6,3.8,6.7,5.4h1.7c-0.2-2.9-2.1-6.8-8.3-6.8
	c-6.9,0-8.6,3.9-8.6,6.7c0,4.5,4.1,5.4,7.1,6c1,0.2,2,0.4,3,0.6c2.5,0.5,5.7,1.5,5.7,5c0,1.5-0.6,5.5-7,5.5c-5.9,0-7.7-3.6-7.6-6.6
	L216.5,57.9L216.5,57.9z M241.1,57.6h10.8l2.9,7.8h1.8l-9.1-23.9h-2l-9.1,23.9h1.8L241.1,57.6L241.1,57.6z M241.7,56.2l4.9-13.4
	l4.9,13.4H241.7z M276.4,57.8c-0.3,3-2.5,6.9-8.1,6.9c-5.7,0-9.1-4.5-9.1-10.9c0-7.1,3.2-11.6,9.1-11.6c5.2,0,7.5,3,7.7,6.2h1.7
	c-0.2-3.1-2.2-7.6-9.4-7.6c-7.3,0-10.8,5.3-10.8,13.1c0,2.3,0.7,12.3,10.7,12.3c7.2,0,9.5-5.1,9.8-8.3
	C278.1,57.8,276.4,57.8,276.4,57.8z M284.6,53.4h13.9v12h1.6V41.5h-1.6V52h-13.9V41.5H283v23.9h1.6V53.4z M306.5,41.5v23.9h1.6V41.5
	H306.5z M313.1,57.9c0,3.5,1.9,8,9.3,8c7.5,0,8.7-4.2,8.7-6.9c0-5.7-6.1-6.4-9-6.9c-4.1-0.8-6.9-1.4-6.9-4.8c0-3,2.5-5.1,6.8-5.1
	c5.6,0,6.6,3.8,6.7,5.4h1.7c-0.2-2.9-2.1-6.8-8.3-6.8c-6.9,0-8.6,3.9-8.6,6.7c0,4.5,4.1,5.4,7.1,6c1,0.2,2,0.4,3,0.6
	c2.5,0.5,5.7,1.5,5.7,5c0,1.5-0.6,5.5-7,5.5c-5.9,0-7.7-3.6-7.6-6.6L313.1,57.9L313.1,57.9z M354,57.8c-0.3,3-2.5,6.9-8.1,6.9
	c-5.7,0-9-4.5-9-10.9c0-7.1,3.2-11.6,9.1-11.6c5.2,0,7.5,3,7.7,6.2h1.7c-0.2-3.1-2.2-7.6-9.4-7.6c-7.3,0-10.8,5.3-10.8,13.1
	c0,2.3,0.7,12.3,10.7,12.3c7.2,0,9.5-5.1,9.8-8.3H354z M362.2,53.4h13.9v12h1.6V41.5h-1.6V52h-13.9V41.5h-1.6v23.9h1.6
	C362.2,65.4,362.2,53.4,362.2,53.4z M385.7,52.2v-9.3h14.2v-1.4H384v23.9h16.3v-1.4h-14.6V53.7h13.1v-1.4
	C398.8,52.2,385.7,52.2,385.7,52.2z M176.2,82.1v14.6c0,4.3,0.6,9.8,8.8,9.8c8.1,0,8.8-5.6,8.8-9.8V82.1h-1.6v14.5
	c0,4.3-0.9,8.4-7.2,8.4c-6.3,0-7.2-4.2-7.2-8.4V82.1H176.2L176.2,82.1z M201.4,84.4l14.4,21.6h2V82.1h-1.6v21.6l-14.3-21.6h-2V106
	h1.6L201.4,84.4L201.4,84.4z M224.1,82.1V106h1.6V82.1H224.1z M238.6,104.4l-7.8-22.3H229l8.5,23.9h2.2l8.5-23.9h-1.8L238.6,104.4z
	 M253.2,92.9v-9.3h14.2v-1.4h-15.8V106h16.3v-1.4h-14.6V94.3h13.1v-1.4L253.2,92.9L253.2,92.9z M271.7,106h1.6V95h8.4
	c4.4,0,4.6,2.5,4.8,4.6c0.2,4.2,0.1,5,0.9,6.4h1.9c-0.9-1.4-0.8-2.4-1-6.4c-0.1-1.9-0.3-4.5-3.4-5.3v-0.1c2.7-0.7,4.2-3,4.2-6
	c0-5.8-5.2-6.1-7.9-6.1h-9.5L271.7,106L271.7,106z M273.4,83.6h7.9c2,0,6.2,0.1,6.2,4.7c0,4.6-3.7,5.3-5.5,5.3h-8.6L273.4,83.6
	L273.4,83.6z M293.4,98.6c0,3.5,1.9,8,9.3,8c7.5,0,8.7-4.2,8.7-6.9c0-5.7-6.1-6.4-9-6.9c-4.1-0.8-6.9-1.4-6.9-4.8
	c0-3,2.5-5.1,6.8-5.1c5.6,0,6.6,3.8,6.7,5.4h1.7c-0.2-2.9-2.1-6.8-8.3-6.8c-6.9,0-8.6,3.9-8.6,6.7c0,4.5,4.1,5.4,7.1,6
	c1,0.2,2,0.4,3,0.6c2.5,0.5,5.7,1.5,5.7,5c0,1.5-0.6,5.5-7,5.5c-5.9,0-7.7-3.6-7.7-6.6C295.1,98.6,293.4,98.6,293.4,98.6z
	 M316.4,82.1V106h1.6V82.1H316.4z M329.5,83.6V106h1.6V83.6h8.1v-1.4h-17.9v1.4H329.5z M366.6,83.6V106h1.6V83.6h8.1v-1.4h-17.9v1.4
	H366.6z M343.9,98.9h9.9l2.7,7.1h1.7l-8.4-21.9h-1.9l-8.4,21.9h1.7L343.9,98.9L343.9,98.9z M344.4,97.6l4.5-12.2l4.5,12.2
	L344.4,97.6L344.4,97.6z"/>
</svg>
